{"title":"Fast.and.Furious.5.Rio.Heist.2011.NEW.HQ.VIDEO.TS.XviD.AC3.Hive-","uid":6417786,"size":1920056096,"categoryP":"video","categoryS":"movies","magnet":"?xt=urn:btih:bfba7ddc7d8ed9b40acf97fc955cb2634b3186b7&amp;dn=Fast.and.Furious.5.Rio.Heist.2011.NEW.HQ.VIDEO.TS.XviD.AC3.Hive-&amp;tr=udp%3A%2F%2Ftracker.openbittorrent.com%3A80&amp;tr=udp%3A%2F%2Fopen.demonii.com%3A1337&amp;tr=udp%3A%2F%2Ftracker.coppersurfer.tk%3A6969&amp;tr=udp%3A%2F%2Fexodus.desync.com%3A6969","seeders":1,"leechers":0,"uploader":"SAFCukO09","files":6,"time":1306221088,"description":"Thx Hive\n\nCM8 Doing It Right The First Time\n\nSources:\n\nVideo: New High Quality German 720P TS PFD thx\n\n\nAudio: Imagines Line thx\n\nEncode:\n\nthe german ts was very good, no shaking,no flickering, nothing cropped and full movie.\nThe scenes at daylight were very good didnt touch them much, there are some darker scenes\nwhich i brightened up a bit, looks very good now, could almost pass as a screener.\nI synced the line nearly lipsync, was a lot of work all together around 10h work at least.\nwill do till the retail comes around.\nwatch samples!!\n\nVideo: 720x304 @bitrate 1900 2pass\nAudio: English AC3 2.0 Stereo\nSample: yes 3 included, daylight,dark and action parts\n\n &lt;a href=&quot;\nhttp://www.imdb.com/title/tt1596343/&quot; rel=&quot;nofollow&quot; target=&quot;_NEW&quot;&gt;\nhttp://www.imdb.com/title/tt1596343/&lt;/a&gt;\n\n\nGeneral\nComplete name : Fast.and.Furious.5.Rio.Heist.2011.NEW.HQ.VIDEO.TS.XviD.AC3.Hive-CM8.avi\nFormat : AVI\nFormat/Info : Audio Video Interleave\nFile size : 1.76 GiB\nDuration : 1h 56mn\nOverall bit rate : 2 167 Kbps\nWriting application : Nandub v1.0rc2\nWriting library : Nandub build 1853/release\n\nVideo\nID : 0\nFormat : MPEG-4 Visual\nFormat profile : Advanced Simple@L5\nFormat settings, BVOP : 2\nFormat settings, QPel : Yes\nFormat settings, GMC : No warppoints\nFormat settings, Matrix : Default (H.263)\nMuxing mode : Packed bitstream\nCodec ID : XVID\nCodec ID/Hint : XviD\nDuration : 1h 56mn\nBit rate : 1 901 Kbps\nWidth : 720 pixels\nHeight : 304 pixels\nDisplay aspect ratio : 2.35:1\nFrame rate : 25.000 fps\nColor space : YUV\nChroma subsampling : 4:2:0\nBit depth : 8 bits\nScan type : Progressive\nCompression mode : Lossy\nBits/(Pixel*Frame) : 0.347\nStream size : 1.55 GiB (88%)\nWriting library : XviD 1.2.1 (UTC 2008-12-04)\n\nAudio\nID : 1\nFormat : AC-3\nFormat/Info : Audio Coding 3\nMode extension : CM (complete main)\nCodec ID : 2000\nDuration : 1h 56mn\nBit rate mode : Constant\nBit rate : 256 Kbps\nChannel(s) : 2 channels\nChannel positions : Front: L R\nSampling rate : 48.0 KHz\nBit depth : 16 bits\nCompression mode : Lossy\nStream size : 213 MiB (12%)\nAlignment : Split accross interleaves\nInterleave, duration : 40 ms (1.00 video frame)\nInterleave, preload duration : 500 ms\n\n\n\nVin Diesel ... Dominic Toretto\nPaul Walker ... Brian O'Conner\nJordana Brewster ... Mia\nTyrese Gibson ... Roman\nLudacris ... Tej (as Chris 'Ludacris' Bridges)\nMatt Schulze ... Vince\nDwayne Johnson ... Hobbs\n\n\nDominic and his crew find themselves on the wrong side of the law once again\nas they try to switch lanes between a ruthless drug lord and a relentless federal agent. ","torrent":{"xt":"urn:btih:bfba7ddc7d8ed9b40acf97fc955cb2634b3186b7","amp;dn":"Fast.and.Furious.5.Rio.Heist.2011.NEW.HQ.VIDEO.TS.XviD.AC3.Hive-","amp;tr":["udp%3A%2F%2Ftracker.openbittorrent.com%3A80","udp%3A%2F%2Fopen.demonii.com%3A1337","udp%3A%2F%2Ftracker.coppersurfer.tk%3A6969","udp%3A%2F%2Fexodus.desync.com%3A6969"],"infoHash":"bfba7ddc7d8ed9b40acf97fc955cb2634b3186b7","infoHashBuffer":{"type":"Buffer","data":[191,186,125,220,125,142,217,180,10,207,151,252,149,92,178,99,75,49,134,183]},"announce":[],"urlList":[]}}